# xmcd CD database file
#
# Track frame offsets:
#	210
#	11657
#	23998
#	34311
#	46004
#	59741
#	74176
#	89196
#	103672
#	118335
#	129921
#	145160
#	158122
#	172640
#	184784
#	199207
#	214877
#	226621
#	237502
#	251712
#	264583
#	278117
#
# Disc length: 3858 seconds
#
# Revision: 0
# Processed by: cddbd v1.5PL3 Copyright (c) Steve Scherf et al.
# Submitted via: CDex 1.51
#
DISCID=4b0f1016
DTITLE=The Dixon Brothers - Dixon Brothers, Vol. 1: 1936
DYEAR=1999
DGENRE=Country
TTITLE0=Weave Room Blues
TTITLE1=Two Little Rosebuds
TTITLE2=Sales Tax on the Women
TTITLE3=Intoxicated Rat
TTITLE4=Not Turning Back
TTITLE5=White Flower for You
TTITLE6=Answer to Maple on the Hill, Pt. 1
TTITLE7=Answer to Maple on the Hill, Pt. 2
TTITLE8=Greenback Dollar, Pt. 1
TTITLE9=Spinning Room Blues
TTITLE10=My Girl In Sunny Tennessee
TTITLE11=A Wonderful Day
TTITLE12=Are You Sure?
TTITLE13=That Old Vacant Chair
TTITLE14=I'm Just Here to Get My Baby Out of Jail, Pt. 2
TTITLE15=Never to Be Sweethearts Again
TTITLE16=Bonnie Blue Eyes, Pt. 2
TTITLE17=Ocean of Life
TTITLE18=Rambling Gambler
TTITLE19=Dark Eyes
TTITLE20=Easter Day
TTITLE21=The Old True Love
EXTD=YEAR: 1999
EXTT0=
EXTT1=
EXTT2=
EXTT3=
EXTT4=
EXTT5=
EXTT6=
EXTT7=
EXTT8=
EXTT9=
EXTT10=
EXTT11=
EXTT12=
EXTT13=
EXTT14=
EXTT15=
EXTT16=
EXTT17=
EXTT18=
EXTT19=
EXTT20=
EXTT21=
PLAYORDER=
